<svg xmlns="http://www.w3.org/2000/svg" viewBox="0 0 1062.67 537.87"><g fill="#fff"><path d="M276.92 469.88l-.06-2.85c5.87-.1 12.42-2.1 18.76-4 6.1-1.85 12.38-3.77 18.22-4.08 9.53-.52 19.22-1.37 28.6-2.2l20.23-1.68c4.08-.28 8.42-.57 12.75-.6l153-.34q15.9 0 31.77-.07l84.32.24a90.07 90.07 0 0 1 10.34 1c2.92.38 5.94.78 8.9.9 5.73.23 11.6.18 17.26.14 6.1 0 12.42-.1 18.63.2 6.54.3 13.7 2.7 20.6 5 7.2 2.4 14.64 4.87 21.24 4.94v2.85c-7-.07-14.7-2.62-22.1-5.08-6.73-2.24-13.68-4.55-19.83-4.84s-12.4-.24-18.48-.2c-5.7 0-11.6.08-17.4-.15-3.08-.12-6.17-.52-9.15-.92a88.46 88.46 0 0 0-10-.93l-84.27-.24q-15.9 0-31.78.07l-152.94.34c-4.25 0-8.54.3-12.56.6l-20.2 1.67-28.7 2.2c-5.5.3-11.62 2.16-17.54 4-6.6 1.85-13.35 3.9-19.6 4.03z"/><path d="M221.17 479.92a128.22 128.22 0 0 1-15.71-.82c-5.88-.72-7.54-7-8.25-9.64l-.05-.2c-.36-1.37-1.36-6.14.85-10.2a21.45 21.45 0 0 1 5.17-5.8 23.16 23.16 0 0 0 2.16-2l5.5-6.1c5.4-6 11-12.15 15.77-18.47a6.37 6.37 0 0 0 .69-2.92 12.2 12.2 0 0 0-.7-4.6c-2.38-6.76-5.14-13.62-7.82-20.26-3.05-7.55-6.2-15.37-8.88-23.25a40.32 40.32 0 0 1-2-12.62 113.58 113.58 0 0 1 1.18-14.69l.38-3.05 4.62-36.2q.9-6.78 1.8-13.55 1.83-14 3.65-28.1l10.5-79.9 12.23-88 2.6-18.4c.78-6 1.58-12.22 2.8-18.34l.2-1c.8-4 1.7-8.6 4.35-12.2 2.35-3.2 6.07-4.2 8.8-4.9a12.59 12.59 0 0 0 1-.28A27.83 27.83 0 0 1 272.07 43a40.28 40.28 0 0 1 12 3.31 42.82 42.82 0 0 1 10.36 6.27 56.35 56.35 0 0 1 9 9.75 80.19 80.19 0 0 1 4.81 7.51c1.23 2.1 2.4 4.1 3.7 5.9a93.29 93.29 0 0 0 8.87 11c8.45 8.68 17.82 17.66 27.85 26.7l4.94 4.48c8.12 7.38 16.52 15 25.33 21.2 2.2 1.55 5.26 2.46 8.48 3.43 1.45.43 2.94.88 4.43 1.4 2.17.77 4.42 1.4 6.8 2.08a83.66 83.66 0 0 1 11.37 3.77 29 29 0 0 1 9.34 6.77 49.59 49.59 0 0 1 7.47 11.06 33.13 33.13 0 0 1 3.81 11.23 73 73 0 0 1-.3 15.46v.26c-.3 3.2-.84 6.33-1.37 9.35-.46 2.68-.9 5.2-1.17 7.74l-.3 2.6a40.28 40.28 0 0 0-.4 9.66 28.85 28.85 0 0 0 3.47 10.31c1.54 2.65 4.47 5.2 7 7.47a281.5 281.5 0 0 0 19.8 15.67c7.38 5.33 14.92 10.44 22.3 15.44l21.5 14.87c2.74 2 5.6 3.9 8.36 5.8a183.34 183.34 0 0 1 17.57 13 20.24 20.24 0 0 1 6.07 9.54 18.39 18.39 0 0 1-1.85 12c-1.8 3.2-5.06 4.7-7.45 5.8l-.7.33a28.91 28.91 0 0 1-9.48 2.39 30.91 30.91 0 0 1-3.21.15 91 91 0 0 1-9.48-.66l-54.07-6.18L343.1 318.7c-.5 0-1-.07-1.52-.07-3.64 0-7.65 1.06-11.44 2.2a32.46 32.46 0 0 0-9.37 4.7 44.23 44.23 0 0 0-8 8c-3.43 4.23-6.6 9-9.67 13.55l-1.82 2.72c-.36.54-.76 1.08-1.16 1.64-.52.72-1.18 1.64-1.57 2.33a9.39 9.39 0 0 0 2 .45c19.36 2.32 39.3 3.94 58.56 5.5l2.36.2c5.37.43 11 .65 17.22.65q32.76 0 65.55.1l96 .13 135.9-.58a14.1 14.1 0 0 0 6.57-1.91 10.08 10.08 0 0 0 3.76-3.78 40.68 40.68 0 0 0 3.33-11.93 57.2 57.2 0 0 0 .63-14.35 43.19 43.19 0 0 0-2.82-10l-.4-1.08A113.18 113.18 0 0 0 682 305.6a48.25 48.25 0 0 0-4.17-7.37 72.21 72.21 0 0 0-7.8-8.72 87.21 87.21 0 0 0-11.32-9.79 81.88 81.88 0 0 0-15.56-8.34C637 269 630.68 267.1 624 265.14l-11.27-3.4c-1.2-.38-2.4-.72-3.62-1.06a48.28 48.28 0 0 1-9.78-3.54 81.48 81.48 0 0 1-15.08-10.53 78.13 78.13 0 0 1-12.37-13.3 56 56 0 0 1-6.44-13 157 157 0 0 1-5.44-17.79l-.25-1a48 48 0 0 1-2-12.29 62.33 62.33 0 0 1 2.63-17.51 242.17 242.17 0 0 1 9.65-24.53q1.1-2.5 2.18-5l4.3-10.23c4.24-10.23 8.62-20.8 14.17-30.6 3.55-6.25 8.9-11.13 13.65-15.08 5.84-4.86 10.85-7.8 15.75-9.2a24.65 24.65 0 0 1 6.92-.89 60.16 60.16 0 0 1 9.24.9A16.27 16.27 0 0 1 644 81l1.63 1.33c3.34 2.7 7.12 5.76 9.9 9.8 16.1 23.3 31.44 48.3 45 70.33l61.75 102.17 34.3 57.06 7.77 12.87 32.13 53 11.57 18.27c6.45 10 13.12 20.4 19 30.94a18.83 18.83 0 0 1 2 11.33c-.4 3.3-1.17 9.47-6 12.6-9.52 6.2-21.22 10.38-31.53 14.08a52.23 52.23 0 0 1-16.73 3l-358.65 2.02q-15.56 0-31.14 0c-36.65 0-73.9-.16-109.93-.3q-32.64-.12-65.3-.24h-.55c-4.53 0-9.26.16-13.84.3l-14.2.38zm-12.32-12.2c3.58.35 7.56.5 12.32.5 4.53 0 9.26-.15 13.84-.3l14.22-.3h.6q32.65.1 65.32.24l109.88.3q15.56 0 31.12 0l32.64-.08 325.93-1.94a40.2 40.2 0 0 0 12.93-2.35c9.63-3.45 20.54-7.36 28.88-12.74a13.36 13.36 0 0 0 1-4.38 7.47 7.47 0 0 0-.65-4.18c-5.74-10.24-12.3-20.45-18.67-30.34l-11.7-18.48-39.94-65.87-34.32-57.1-61.68-102.05c-13.46-21.92-28.72-46.77-44.63-69.82-1.84-2.65-4.66-4.94-7.64-7.35l-1.74-1.5a7.66 7.66 0 0 0-2.11-1.44 50.57 50.57 0 0 0-7.41-.75 13.34 13.34 0 0 0-3.67.43c-3.26.94-7 3.22-11.53 7-4 3.28-8.34 7.25-11 11.87-5.2 9.16-9.44 19.4-13.55 29.3l-4.36 10.38-2.2 5.06a234.55 234.55 0 0 0-9.22 23.34 50.6 50.6 0 0 0-2.09 14.17 38.26 38.26 0 0 0 1.59 9.3l.26 1a147.5 147.5 0 0 0 5 16.52 46.44 46.44 0 0 0 5 10.29 67 67 0 0 0 10.54 11.29 69.34 69.34 0 0 0 12.89 9 38.79 38.79 0 0 0 7.47 2.62l4.06 1.2c3.6 1.16 7.34 2.26 11 3.3 6.66 1.95 13.55 4 20.2 6.58a93.72 93.72 0 0 1 17.81 9.53 94.8 94.8 0 0 1 12.86 11 84 84 0 0 1 9.12 10.23 58.09 58.09 0 0 1 5.26 9.14 122.7 122.7 0 0 1 5.65 12.73l.4 1.05c1.4 3.85 3 8.22 3.47 12.82a68.36 68.36 0 0 1-.71 17.31c-1 6.44-2.4 11.32-4.43 15.37a21.78 21.78 0 0 1-8.37 8.68 25.56 25.56 0 0 1-12.29 3.47l-136 .58c-32 0-64.52-.06-96-.13q-32.77-.06-65.54-.1c-6.53 0-12.47-.23-18.15-.7l-2.36-.2-59-5.56c-2.26-.28-6.47-1.15-9.4-3.93a11.16 11.16 0 0 1-2.83-10.15 20.89 20.89 0 0 1 3.76-7.12c.33-.45.65-.9.95-1.34l1.8-2.68c3.2-4.8 6.54-9.77 10.3-14.4A55.57 55.57 0 0 1 313.92 316a43.58 43.58 0 0 1 12.86-6.43 51.76 51.76 0 0 1 14.81-2.69c.86 0 1.72 0 2.55.1 35.06 3.1 70.18 7.22 104.15 11.2l54 6.17a81.73 81.73 0 0 0 8.21.59 18.68 18.68 0 0 0 2-.09 17.87 17.87 0 0 0 5.69-1.32l.83-.38a19.84 19.84 0 0 0 2.27-1.17 7.56 7.56 0 0 0 .55-3.27 9.23 9.23 0 0 0-2.36-3.44A175.36 175.36 0 0 0 503 303.1l-8.62-6c-7-5-14.22-9.93-21.24-14.68l-22.57-15.65c-7.67-5.54-14.42-10.9-20.64-16.34-3.1-2.7-6.95-6.08-9.45-10.38a40.21 40.21 0 0 1-4.95-14.62 49.69 49.69 0 0 1 .37-12.59l.28-2.45c.3-2.92.8-5.77 1.28-8.52.5-2.92 1-5.68 1.24-8.4v-.25c.4-4.42.82-9 .33-13a22.28 22.28 0 0 0-2.6-7.3 38.49 38.49 0 0 0-5.66-8.48 17.57 17.57 0 0 0-5.49-4 75.23 75.23 0 0 0-9.78-3.25c-2.44-.7-5-1.42-7.48-2.3-1.23-.44-2.53-.83-3.9-1.24-3.8-1.13-8.08-2.42-11.83-5.05-9.42-6.6-18.1-14.5-26.48-22.1l-4.9-4.44c-10.22-9.2-19.78-18.36-28.4-27.22a104.68 104.68 0 0 1-10-12.3c-1.6-2.24-3-4.55-4.27-6.78a68.39 68.39 0 0 0-4.08-6.43 45 45 0 0 0-7.15-7.75 31.35 31.35 0 0 0-7.5-4.56 28.85 28.85 0 0 0-8.5-2.37 17 17 0 0 0-5.76 1L264 56a18.08 18.08 0 0 0-2.56.8c-1 1.62-1.62 4.74-2.12 7.28l-.22 1.1c-1.15 5.72-1.93 11.73-2.68 17.54l-1 7.23-1.6 11.3-12.22 87.9L231.1 269q-1.82 14-3.64 28-.9 6.78-1.8 13.57l-4.6 36.06-.38 3.12a102.2 102.2 0 0 0-1.09 13.17 28.87 28.87 0 0 0 1.38 8.94c2.56 7.57 5.65 15.23 8.64 22.63 2.73 6.76 5.54 13.75 8 20.77a23.85 23.85 0 0 1 1.39 9.24 16.84 16.84 0 0 1-3 9.2c-5.1 6.73-10.86 13.1-16.44 19.27l-5.42 6a34 34 0 0 1-3.24 3.09 15.78 15.78 0 0 0-2.5 2.46 4.39 4.39 0 0 0 .12 1.72l.05.2c.01.33.14.82.28 1.28zm-42.1-.12h-2.66v-2.86h8.7v2.86h-2.87v8.12h-3.17zm12.16-2.87v11h-3.1v-8l-1.8.55-.7-2.62 3.08-.95zM257.18 418h-2.66v-2.86h8.7V418h-2.88v8.12h-3.16zm15.12 5.43v2.66h-8.2V425a3.8 3.8 0 0 1 .8-2.35 9 9 0 0 1 2.21-1.95l1-.65a3.83 3.83 0 0 0 .6-.46 1.14 1.14 0 0 0 .29-.37.93.93 0 0 0 .09-.42 1 1 0 0 0-.25-.73.92.92 0 0 0-.67-.24c-.63 0-1 .42-1 1.26h-3.08a4.1 4.1 0 0 1 1.11-3.06 4.89 4.89 0 0 1 6-.17 3.82 3.82 0 0 1 .85 3.81 3.11 3.11 0 0 1-.54.95 4.56 4.56 0 0 1-.9.84l-1.24.86-.94.6a6.55 6.55 0 0 0-.71.53zm-97.95-59.33h-2.66v-2.86h8.7v2.86h-2.87v8.12h-3.17zm13.48 2.5a2.88 2.88 0 0 1 1.24 1 2.74 2.74 0 0 1 .43 1.52 3 3 0 0 1-.31 1.34 2.94 2.94 0 0 1-.85 1 4.1 4.1 0 0 1-1.32.67 5.48 5.48 0 0 1-1.67.24 4.23 4.23 0 0 1-3-1 4.08 4.08 0 0 1-1.16-2.93h2.95a1.28 1.28 0 0 0 .31.86 1 1 0 0 0 .79.31 1.2 1.2 0 0 0 .81-.27 1 1 0 0 0 0-1.42 1.25 1.25 0 0 0-.83-.25h-1.07v-2.2h1c.73 0 1.1-.3 1.1-.9a.82.82 0 0 0-.28-.67 1.12 1.12 0 0 0-.76-.25 1 1 0 0 0-1.11 1.1h-2.9a4.36 4.36 0 0 1 .36-1.57 3.34 3.34 0 0 1 .86-1.19 3.59 3.59 0 0 1 1.29-.75 5.58 5.58 0 0 1 3.27 0 3.54 3.54 0 0 1 1.22.64 3 3 0 0 1 .79 1 3.11 3.11 0 0 1 .27 1.29 2.49 2.49 0 0 1-1.41 2.43zm75.3-347.94h-2.66V15.8h8.7v2.85h-2.87v8.13h-3.17zm15.02 6.46h-1.2v1.67h-3.1v-1.67H269v-2.4l4.6-6.92h3.4v6.75h1.2zM272 22.56h2.2V19.1zm114.66 92.8H384v-2.85h8.7v2.85h-2.87v8.13h-3.17zm12.1.83a3.63 3.63 0 0 1 1.42.27 3.27 3.27 0 0 1 1.12.76 3.68 3.68 0 0 1 .73 1.17 4.14 4.14 0 0 1 .26 1.48 4 4 0 0 1-.3 1.57 3.33 3.33 0 0 1-.87 1.22 3.77 3.77 0 0 1-1.34.77 5.44 5.44 0 0 1-1.77.27 4.17 4.17 0 0 1-2.93-1 3.79 3.79 0 0 1-1.18-2.76h3a1.08 1.08 0 0 0 .37.72 1.05 1.05 0 0 0 .74.27 1.09 1.09 0 0 0 .85-.35 1.29 1.29 0 0 0 .32-.9 1.25 1.25 0 0 0-.33-.88 1.12 1.12 0 0 0-.84-.35 1.1 1.1 0 0 0-.57.15 1.23 1.23 0 0 0-.44.41h-2.84v-6.5h7.55v2.66h-4.62v1.4a3.71 3.71 0 0 1 1.67-.37zm-15.02 63.02h-2.67v-2.86h8.7v2.86h-2.87v8.13h-3.16zm11.35.44a3.76 3.76 0 0 1 2.28 1.26 3.75 3.75 0 0 1 .66 1.15 4.09 4.09 0 0 1-.09 3 4.33 4.33 0 0 1-.91 1.31 4.13 4.13 0 0 1-1.35.87 4.52 4.52 0 0 1-1.68.32 4.17 4.17 0 0 1-1.66-.33 4.09 4.09 0 0 1-2.23-2.22 4.11 4.11 0 0 1-.33-1.64 4.18 4.18 0 0 1 .07-.72 3.9 3.9 0 0 1 .21-.73 5.49 5.49 0 0 1 .4-.81l.63-1 2.5-3.74h3.64zm-1.1 5.1a1.22 1.22 0 0 0 .9-.36 1.29 1.29 0 0 0 .36-.93 1.23 1.23 0 0 0-1.26-1.27 1.2 1.2 0 0 0-.89.36 1.26 1.26 0 0 0-.35.91 1.33 1.33 0 0 0 .35.93 1.2 1.2 0 0 0 .89.36zm51.52 34.4h-2.66v-2.85h8.7v2.85h-2.87v8.13h-3.17zm14.72-2.85v2.6l-4 8.4h-3.38l4.1-8.2h-4.6v-2.8zm81.96 121.06h-2.67v-2.86h8.7v2.86h-2.87v8.13h-3.16z"/><path d="M556.2 339.74a2.82 2.82 0 0 1 1.55 2.66 3.23 3.23 0 0 1-.29 1.37 2.9 2.9 0 0 1-.85 1 3.92 3.92 0 0 1-1.36.66 6.2 6.2 0 0 1-1.79.24 5 5 0 0 1-3.14-.88 2.89 2.89 0 0 1-1.14-2.42 3.07 3.07 0 0 1 .39-1.59 3 3 0 0 1 1.14-1.07 2.82 2.82 0 0 1-1-1 2.7 2.7 0 0 1-.34-1.37 2.82 2.82 0 0 1 .28-1.27 2.77 2.77 0 0 1 .83-1 4.08 4.08 0 0 1 1.29-.63 6.21 6.21 0 0 1 1.68-.22 6.35 6.35 0 0 1 1.69.22 4.08 4.08 0 0 1 1.29.63 2.79 2.79 0 0 1 1.1 2.25 2.63 2.63 0 0 1-1.34 2.35zm-2.74 3.64a1.19 1.19 0 0 0 .85-.31 1 1 0 0 0 .34-.81 1.21 1.21 0 0 0-2-.84 1.16 1.16 0 0 0-.33.85 1 1 0 0 0 .33.81 1.23 1.23 0 0 0 .81.3zm0-6.77a1.08 1.08 0 0 0-.78.29.92.92 0 0 0-.31.72 1.08 1.08 0 1 0 2.15 0 .94.94 0 0 0-.29-.72 1 1 0 0 0-.76-.29zm-236.03-52.3h-2.66v-2.85h8.7v2.85h-2.88v8.13h-3.16zm9.95 4.82a3.41 3.41 0 0 1-1.26-.42 3.71 3.71 0 0 1-1-.83 3.58 3.58 0 0 1-.67-1.15 3.93 3.93 0 0 1-.24-1.38 3.83 3.83 0 0 1 .34-1.62 4.12 4.12 0 0 1 2.26-2.18 4.45 4.45 0 0 1 1.68-.32 4.16 4.16 0 0 1 1.65.33 4 4 0 0 1 1.34.89 4.2 4.2 0 0 1 .89 1.33 4.12 4.12 0 0 1 .33 1.65 3.38 3.38 0 0 1-.07.72 3.61 3.61 0 0 1-.21.72 6.18 6.18 0 0 1-.4.83q-.25.44-.63 1l-2.5 3.74h-3.63zm1.08-5.1a1.19 1.19 0 0 0-.9.37 1.25 1.25 0 0 0-.36.92 1.23 1.23 0 0 0 1.26 1.27 1.18 1.18 0 0 0 .89-.36 1.24 1.24 0 0 0 .35-.91 1.28 1.28 0 0 0-.35-.92 1.16 1.16 0 0 0-.89-.4zm-77.16 79.86h-2.66V361h8.7v2.86h-2.87V372h-3.17zm12.15-2.88v11h-3.1v-8l-1.8.56-.7-2.63 3.08-1zm7.55 11.22a6.29 6.29 0 0 1-2.37-.43 5.38 5.38 0 0 1-3.08-3 6.37 6.37 0 0 1 0-4.6 5.26 5.26 0 0 1 1.22-1.8 5.74 5.74 0 0 1 1.86-1.18 6.87 6.87 0 0 1 4.73 0 5.74 5.74 0 0 1 1.86 1.18 5.26 5.26 0 0 1 1.22 1.8 6.37 6.37 0 0 1 0 4.6 5.38 5.38 0 0 1-3.08 3 6.27 6.27 0 0 1-2.36.43zm0-2.86a2.74 2.74 0 0 0 1.08-.21 2.31 2.31 0 0 0 .84-.6 2.72 2.72 0 0 0 .55-.9 3 3 0 0 0 .21-1.14 3 3 0 0 0-.21-1.13 2.73 2.73 0 0 0-.56-.91 2.55 2.55 0 0 0-.85-.59 2.64 2.64 0 0 0-1.06-.21 2.74 2.74 0 0 0-1.08.21 2.5 2.5 0 0 0-.84.59 2.92 2.92 0 0 0-.57.91 3.19 3.19 0 0 0-.2 1.13 3.25 3.25 0 0 0 .2 1.14 2.77 2.77 0 0 0 .57.9 2.4 2.4 0 0 0 .84.6 2.74 2.74 0 0 0 1.08.21zm438.6 2.7H707v-2.86h8.7v2.86h-2.87v8.13h-3.17zm12.15-2.86v11h-3.1v-8l-1.8.56-.7-2.63 3.1-.95zm6.75 0v11h-3.1v-8l-1.8.56-.7-2.63 3.1-.95zM605.12 219.14h-2.66v-2.86h8.7v2.86h-2.87v8.12h-3.17zm12.14-2.86v11h-3.1v-8l-1.8.55-.7-2.62 3.08-.95zm9.9 8.32v2.66H619v-1.12a3.75 3.75 0 0 1 .8-2.34 8.71 8.71 0 0 1 2.2-2l1-.65a4.38 4.38 0 0 0 .6-.46 1.14 1.14 0 0 0 .29-.37 1.08 1.08 0 0 0 .08-.42 1 1 0 0 0-.24-.73.93.93 0 0 0-.73-.17c-.63 0-1 .42-1 1.26h-3a4.1 4.1 0 0 1 1.11-3.06 4.88 4.88 0 0 1 5.89-.2 3.3 3.3 0 0 1 1.05 2.61 3.36 3.36 0 0 1-.19 1.2 3.14 3.14 0 0 1-.55.95 4.79 4.79 0 0 1-.89.84l-1.25.86-.93.6a5.69 5.69 0 0 0-.71.53zM589.12 55.56h-2.66V52.7h8.7v2.86h-2.87v8.13h-3.17zm12.14-2.86v11h-3.1v-8l-1.8.56-.7-2.63 3.08-.95zm8.24 5.37a2.91 2.91 0 0 1 1.25 1 2.74 2.74 0 0 1 .42 1.53 3 3 0 0 1-.3 1.34 2.93 2.93 0 0 1-.86 1 4 4 0 0 1-1.31.67 5.59 5.59 0 0 1-1.68.24 4.19 4.19 0 0 1-3-1 4.08 4.08 0 0 1-1.16-2.85h3a1.22 1.22 0 0 0 .31.86 1 1 0 0 0 .78.31 1.21 1.21 0 0 0 .82-.26 1 1 0 0 0 .31-.73.85.85 0 0 0-.3-.69 1.21 1.21 0 0 0-.83-.26h-1.06V57h1c.73 0 1.1-.3 1.1-.9a.87.87 0 0 0-.27-.67 1.15 1.15 0 0 0-.77-.24 1.1 1.1 0 0 0-.79.29 1.12 1.12 0 0 0-.32.8h-2.9a4.82 4.82 0 0 1 .36-1.57 3.67 3.67 0 0 1 .86-1.19 4 4 0 0 1 1.3-.75 5.55 5.55 0 0 1 3.26 0 3.77 3.77 0 0 1 1.23.64 3 3 0 0 1 1.06 2.29 2.49 2.49 0 0 1-1.49 2.37zM888.65 449.5H886v-2.86h8.7v2.86h-2.87v8.13h-3.17zm12.15-2.85v11h-3.1v-8l-1.8.56-.7-2.63 3.08-1zm10.75 9.35h-1.2v1.67h-3.1V456h-4.88v-2.4l4.6-6.92h3.4v6.76h1.2zm-6.18-2.56h2.18V450zm-85.22 43.42h-2.67V494h8.7v2.86h-2.87V505h-3.16zM832.3 494v11h-3.1v-8l-1.8.55-.7-2.62 3.08-.95zm6.86 3.7a3.7 3.7 0 0 1 1.42.27 3.22 3.22 0 0 1 1.12.76 3.35 3.35 0 0 1 .72 1.16 4.33 4.33 0 0 1 0 3.06 3.38 3.38 0 0 1-.86 1.21 3.92 3.92 0 0 1-1.35.78 5.37 5.37 0 0 1-1.76.27 4.22 4.22 0 0 1-2.94-1 3.81 3.81 0 0 1-1.18-2.77h3a1.19 1.19 0 0 0 .37.73 1.07 1.07 0 0 0 .74.27 1.12 1.12 0 0 0 .85-.35 1.29 1.29 0 0 0 .33-.91 1.18 1.18 0 0 0-.34-.87 1.08 1.08 0 0 0-.84-.35 1.26 1.26 0 0 0-.57.14 1.43 1.43 0 0 0-.44.41h-2.84V494h7.56v2.66h-4.62v1.4a3.7 3.7 0 0 1 1.63-.37z"/></g><path d="M120.86 218.58a4.3 4.3 0 0 1-3-1 4 4 0 0 1-1.22-2.83h1.45a2.76 2.76 0 0 0 .83 1.88 2.71 2.71 0 0 0 1.94.72 3 3 0 0 0 1.93-.57 1.91 1.91 0 0 0 .72-1.57 1.82 1.82 0 0 0-.41-1.24 4.05 4.05 0 0 0-1.43-.86l-1.8-.68a4.72 4.72 0 0 1-2.08-1.38 3.24 3.24 0 0 1-.65-2.07 3 3 0 0 1 1-2.3 3.62 3.62 0 0 1 1.2-.64 5 5 0 0 1 1.55-.23 4 4 0 0 1 2.75.9 3.54 3.54 0 0 1 1.12 2.51h-1.46a2.27 2.27 0 0 0-.69-1.57 2.43 2.43 0 0 0-1.72-.57 2.67 2.67 0 0 0-1.7.51 1.63 1.63 0 0 0-.64 1.35 2 2 0 0 0 .43 1.33 3.66 3.66 0 0 0 1.45.92l1.82.7a4.7 4.7 0 0 1 2 1.3 3 3 0 0 1 .62 2 3.53 3.53 0 0 1-.29 1.44 3 3 0 0 1-.82 1.1 3.8 3.8 0 0 1-1.29.69 5.58 5.58 0 0 1-1.62.16zm6.7-12.58h7.16v1.3H129v4h5.53v1.3H129v4.52h5.92v1.3h-7.36zm15.58 12.58a6.48 6.48 0 0 1-2.55-.49 6.17 6.17 0 0 1-2-1.35 6.28 6.28 0 0 1-1.35-2 6.85 6.85 0 0 1 0-5.09 6.33 6.33 0 0 1 1.35-2 6.14 6.14 0 0 1 2-1.34 6.55 6.55 0 0 1 2.55-.49 7 7 0 0 1 2.17.33 5.71 5.71 0 0 1 1.8.94 5.64 5.64 0 0 1 1.32 1.47 5.75 5.75 0 0 1 .74 1.9h-1.55a4.67 4.67 0 0 0-.61-1.36 4.08 4.08 0 0 0-1-1 4.38 4.38 0 0 0-1.31-.67 5.19 5.19 0 0 0-1.55-.23 4.93 4.93 0 0 0-2 .39 4.87 4.87 0 0 0-1.56 1.07 4.81 4.81 0 0 0-1 1.6 5.45 5.45 0 0 0 0 4 4.84 4.84 0 0 0 2.6 2.68 5.11 5.11 0 0 0 2 .38 4.59 4.59 0 0 0 2.85-.89 4.3 4.3 0 0 0 1.61-2.42h1.55a5.89 5.89 0 0 1-.74 1.91 5.68 5.68 0 0 1-1.32 1.48 5.92 5.92 0 0 1-1.8.94 7 7 0 0 1-2.2.24zm10.95-11.3h-3.67V206h8.88v1.3h-3.77v11.1h-1.44zm12.66 11.3a6.41 6.41 0 0 1-2.53-.49 6.48 6.48 0 0 1-2-1.35 6.34 6.34 0 0 1-1.36-2 6.93 6.93 0 0 1 0-5.07 6.33 6.33 0 0 1 1.35-2 6.08 6.08 0 0 1 2-1.34 6.8 6.8 0 0 1 5.07 0 6.14 6.14 0 0 1 2 1.34 6.33 6.33 0 0 1 1.35 2 6.8 6.8 0 0 1 0 5.07 6.48 6.48 0 0 1-1.35 2 6.33 6.33 0 0 1-2 1.35 6.41 6.41 0 0 1-2.53.49zm0-1.35a5 5 0 0 0 2-.38 4.73 4.73 0 0 0 2.6-2.69 5.32 5.32 0 0 0 .37-2 5.21 5.21 0 0 0-1.41-3.6 4.59 4.59 0 0 0-1.56-1.06 5.19 5.19 0 0 0-3.9 0 4.59 4.59 0 0 0-1.56 1.06 5.21 5.21 0 0 0-1.41 3.6 5.32 5.32 0 0 0 .37 2 4.73 4.73 0 0 0 2.6 2.69 5 5 0 0 0 1.9.38zm9.1-11.23h3.85a4 4 0 0 1 2.86 1 3.41 3.41 0 0 1 1 2.64 3.71 3.71 0 0 1-.72 2.34 3.55 3.55 0 0 1-2 1.24l3.52 5.22h-1.7l-3.38-5.1h-2v5.1h-1.43zm3.76 6a2.53 2.53 0 0 0 1.82-.62 2.26 2.26 0 0 0 .66-1.74 2.23 2.23 0 0 0-.64-1.71 2.57 2.57 0 0 0-1.84-.61h-2.35V212zm15.07-6v12.4h-1.44v-10.96l-2.35.73-.35-1.25 2.9-1z" opacity=".5" fill="#fff"/><path d="M465.2 400.4a4.31 4.31 0 0 1-3-1 4 4 0 0 1-1.22-2.83h1.45a2.74 2.74 0 0 0 .83 1.88 2.71 2.71 0 0 0 1.94.72 3 3 0 0 0 1.93-.57 1.89 1.89 0 0 0 .72-1.57 1.79 1.79 0 0 0-.41-1.23 3.83 3.83 0 0 0-1.43-.87l-1.8-.68a4.8 4.8 0 0 1-2.08-1.37 3.27 3.27 0 0 1-.65-2.08 3.11 3.11 0 0 1 .28-1.29 2.8 2.8 0 0 1 .77-1 3.84 3.84 0 0 1 1.2-.65 5.09 5.09 0 0 1 1.55-.23 4 4 0 0 1 2.75.91 3.51 3.51 0 0 1 1.12 2.5h-1.45a2.24 2.24 0 0 0-.7-1.56 2.39 2.39 0 0 0-1.72-.58 2.64 2.64 0 0 0-1.69.51 1.62 1.62 0 0 0-.65 1.36 2 2 0 0 0 .43 1.32 3.55 3.55 0 0 0 1.45.92l1.82.7a4.7 4.7 0 0 1 2 1.3 3.05 3.05 0 0 1 .62 2 3.48 3.48 0 0 1-.29 1.43 3 3 0 0 1-.82 1.1 3.62 3.62 0 0 1-1.29.69 5.56 5.56 0 0 1-1.67.17zm6.7-12.62h7.15v1.3h-5.72v4h5.53v1.3h-5.53v4.52h5.92v1.3h-7.35zm15.57 12.62a6.48 6.48 0 0 1-2.55-.49 6.14 6.14 0 0 1-2-1.34 6.33 6.33 0 0 1-1.35-2 7 7 0 0 1 0-5.09 6.28 6.28 0 0 1 1.35-2 6.11 6.11 0 0 1 2-1.35 6.46 6.46 0 0 1 2.54-.49 7 7 0 0 1 2.18.33 6 6 0 0 1 1.79.94 5.8 5.8 0 0 1 1.32 1.47 5.59 5.59 0 0 1 .74 1.91H492a4.73 4.73 0 0 0-.61-1.37 4.18 4.18 0 0 0-2.29-1.7 5.28 5.28 0 0 0-3.51.15 4.81 4.81 0 0 0-1.57 1.07 5.15 5.15 0 0 0-1.42 3.6 5.14 5.14 0 0 0 .38 2 5 5 0 0 0 1 1.6 4.66 4.66 0 0 0 1.57 1.07 4.85 4.85 0 0 0 1.95.39 4.65 4.65 0 0 0 2.86-.9 4.31 4.31 0 0 0 1.6-2.42h1.55a5.73 5.73 0 0 1-.74 1.92 5.65 5.65 0 0 1-3.11 2.41 7 7 0 0 1-2.19.29zm10.95-11.3h-3.67v-1.3h8.9v1.3h-3.78v11.1h-1.44zm12.66 11.3a6.41 6.41 0 0 1-2.53-.49 6.13 6.13 0 0 1-3.39-3.39 6.8 6.8 0 0 1 0-5.07 6.12 6.12 0 0 1 3.38-3.37 6.83 6.83 0 0 1 5.08 0 6.12 6.12 0 0 1 2 1.35 6 6 0 0 1 1.35 2 6.8 6.8 0 0 1 0 5.07 6.16 6.16 0 0 1-1.35 2 6 6 0 0 1-2 1.35 6.46 6.46 0 0 1-2.54.55zm0-1.34a4.93 4.93 0 0 0 2-.39 4.84 4.84 0 0 0 2.6-2.68 5.57 5.57 0 0 0 .36-2 5.22 5.22 0 0 0-.37-2 5 5 0 0 0-1-1.6 4.41 4.41 0 0 0-1.55-1.06 4.93 4.93 0 0 0-2-.38 4.85 4.85 0 0 0-1.95.38 4.55 4.55 0 0 0-1.56 1.06 5 5 0 0 0-1 1.6 5.22 5.22 0 0 0-.38 2 5.37 5.37 0 0 0 .37 2 4.88 4.88 0 0 0 1 1.61 4.76 4.76 0 0 0 1.57 1.07 4.85 4.85 0 0 0 1.91.39zm9.12-11.28h3.8a4.08 4.08 0 0 1 2.87 1 3.46 3.46 0 0 1 1 2.65 3.64 3.64 0 0 1-.73 2.33 3.55 3.55 0 0 1-2 1.24l3.52 5.22H527l-3.38-5.1h-2v5.1h-1.43zm3.76 6a2.57 2.57 0 0 0 1.82-.61 2.6 2.6 0 0 0 0-3.46 2.6 2.6 0 0 0-1.84-.61h-2.34v4.68zm19.5 5.1v1.3h-8.08v-.74a4.13 4.13 0 0 1 .33-1.7 5.12 5.12 0 0 1 .82-1.33 6.11 6.11 0 0 1 1.09-1l1.14-.77q.8-.5 1.38-.87a5.37 5.37 0 0 0 .93-.72 2.3 2.3 0 0 0 .53-.78 2.58 2.58 0 0 0 .16-1 2.27 2.27 0 0 0-.66-1.79 2.53 2.53 0 0 0-3.38.12 2.59 2.59 0 0 0-.68 1.87h-1.47a4.45 4.45 0 0 1 .28-1.62 3.63 3.63 0 0 1 .8-1.24 3.3 3.3 0 0 1 1.22-.79 4.35 4.35 0 0 1 1.61-.28 4.47 4.47 0 0 1 1.53.25 3.28 3.28 0 0 1 2 1.89 4.09 4.09 0 0 1 .27 1.53 3.78 3.78 0 0 1-.24 1.41 3.86 3.86 0 0 1-.71 1.09 6.65 6.65 0 0 1-1.09.91l-1.37.88c-.5.3-.8.53-1.15.78a6 6 0 0 0-.87.75 3.73 3.73 0 0 0-.6.82 3 3 0 0 0-.32 1z" opacity=".5" fill="#fff"/><path d="M875.1 487.86a4.31 4.31 0 0 1-3-1 4 4 0 0 1-1.22-2.83h1.45a2.74 2.74 0 0 0 .83 1.88 2.71 2.71 0 0 0 1.94.72 3 3 0 0 0 1.9-.63 1.89 1.89 0 0 0 .72-1.57 1.79 1.79 0 0 0-.41-1.23 3.91 3.91 0 0 0-1.43-.87l-1.8-.68a4.8 4.8 0 0 1-2.09-1.35 3.27 3.27 0 0 1-.65-2.08 3 3 0 0 1 .28-1.29 2.8 2.8 0 0 1 .77-1 3.74 3.74 0 0 1 1.2-.65 5 5 0 0 1 1.55-.23 4 4 0 0 1 2.75.9 3.55 3.55 0 0 1 1.12 2.51h-1.46a2.27 2.27 0 0 0-.69-1.57 2.43 2.43 0 0 0-1.72-.57 2.67 2.67 0 0 0-1.7.51 1.63 1.63 0 0 0-.64 1.35 2 2 0 0 0 .43 1.33 3.55 3.55 0 0 0 1.45.92l1.82.7a4.7 4.7 0 0 1 2 1.3 3.05 3.05 0 0 1 .62 2 3.48 3.48 0 0 1-.29 1.43 3 3 0 0 1-.82 1.1 3.62 3.62 0 0 1-1.29.69 5.56 5.56 0 0 1-1.63.21zm6.7-12.6h7.2v1.3h-5.72v4h5.53v1.3h-5.53v4.52h5.92v1.3h-7.35zm15.58 12.6a6.48 6.48 0 0 1-2.55-.49 6.14 6.14 0 0 1-2-1.34 6.33 6.33 0 0 1-1.35-2 7 7 0 0 1 0-5.09 6.28 6.28 0 0 1 1.35-2 6.11 6.11 0 0 1 2-1.35 6.46 6.46 0 0 1 2.54-.49 7 7 0 0 1 2.17.33 5.92 5.92 0 0 1 1.8.94 5.8 5.8 0 0 1 1.32 1.47 5.59 5.59 0 0 1 .74 1.91h-1.55a4.73 4.73 0 0 0-.61-1.37 4.25 4.25 0 0 0-1-1 4.2 4.2 0 0 0-1.3-.66 5 5 0 0 0-1.56-.23 5.11 5.11 0 0 0-2 .38 4.87 4.87 0 0 0-1.56 1.07 5.15 5.15 0 0 0-1.42 3.6 5.14 5.14 0 0 0 .38 2 5 5 0 0 0 1 1.6 4.72 4.72 0 0 0 1.56 1.07 4.93 4.93 0 0 0 2 .39 4.6 4.6 0 0 0 2.85-.9 4.27 4.27 0 0 0 1.61-2.42h1.55a5.73 5.73 0 0 1-.74 1.92 5.8 5.8 0 0 1-1.32 1.47 5.71 5.71 0 0 1-1.8.94 7 7 0 0 1-2.11.25zm10.95-11.3h-3.67v-1.3h8.88v1.3h-3.77v11.1h-1.44zm12.67 11.3a6.41 6.41 0 0 1-2.53-.49 6.13 6.13 0 0 1-3.39-3.39 6.8 6.8 0 0 1 0-5.07 6.12 6.12 0 0 1 3.38-3.37 6.83 6.83 0 0 1 5.08 0 6.12 6.12 0 0 1 2 1.35 6.28 6.28 0 0 1 1.35 2 6.8 6.8 0 0 1 0 5.07 6.48 6.48 0 0 1-1.35 2 6 6 0 0 1-2 1.35 6.46 6.46 0 0 1-2.54.55zm0-1.34a4.93 4.93 0 0 0 2-.39 4.72 4.72 0 0 0 1.56-1.07 4.58 4.58 0 0 0 1-1.61 5.37 5.37 0 0 0 .37-2 5.09 5.09 0 0 0-1.41-3.6 4.7 4.7 0 0 0-1.55-1.06 5.1 5.1 0 0 0-2-.37 5 5 0 0 0-2 .37 4.84 4.84 0 0 0-1.56 1.06 5 5 0 0 0-1 1.61 5.22 5.22 0 0 0-.38 2 5.37 5.37 0 0 0 .37 2 4.76 4.76 0 0 0 2.6 2.68 4.85 4.85 0 0 0 2 .38zm9.1-11.27h3.9a4.08 4.08 0 0 1 2.87 1 3.46 3.46 0 0 1 1 2.65 3.7 3.7 0 0 1-.73 2.33 3.55 3.55 0 0 1-2 1.24l3.52 5.22h-1.7l-3.38-5.1h-2v5.1h-1.47zm3.76 6a2.57 2.57 0 0 0 1.82-.61 2.63 2.63 0 0 0 0-3.46 2.6 2.6 0 0 0-1.84-.61h-2.34v4.68zm17.58-.13a3 3 0 0 1 1.45 1.15 3.22 3.22 0 0 1 .5 1.83 3.54 3.54 0 0 1-1.18 2.69 4 4 0 0 1-1.31.79 4.76 4.76 0 0 1-1.67.28 4.67 4.67 0 0 1-1.62-.27 3.41 3.41 0 0 1-1.27-.77 3.63 3.63 0 0 1-.82-1.23 5.19 5.19 0 0 1-.33-1.64h1.46a2.66 2.66 0 0 0 .73 1.87 2.45 2.45 0 0 0 1.81.7 3.23 3.23 0 0 0 1.11-.18 2.68 2.68 0 0 0 .86-.49 2.28 2.28 0 0 0 .55-.75 2.41 2.41 0 0 0 .19-1 2.12 2.12 0 0 0-.72-1.7 3.05 3.05 0 0 0-2-.6h-1.23v-1.3h1.22a2.46 2.46 0 0 0 1.7-.54 2.25 2.25 0 0 0 0-3.05 2.37 2.37 0 0 0-1.66-.54 2.52 2.52 0 0 0-1.71.57 2 2 0 0 0-.7 1.51h-1.44a3.18 3.18 0 0 1 .33-1.37 3.47 3.47 0 0 1 .83-1.09 3.77 3.77 0 0 1 1.22-.71 4.38 4.38 0 0 1 1.53-.26 4.55 4.55 0 0 1 1.51.24 3.57 3.57 0 0 1 1.16.67 2.9 2.9 0 0 1 .74 1.05 3.4 3.4 0 0 1 .27 1.36 3.25 3.25 0 0 1-.39 1.63 3.16 3.16 0 0 1-1.12 1.14z" opacity=".5" fill="#fff"/><g fill="#fff"><path d="M599.4 500.4l6.4 6.46 4.58.02-6.4-6.46 6.5-6.42-4.57-.02-6.5 6.42z" opacity=".8"/><path d="M591.7 500.44l6.4 6.46 4.57.03-6.4-6.47 6.5-6.42-4.57-.02-6.5 6.42z" opacity=".9"/><path d="M583.92 500.36l6.4 6.46 4.58.02-6.4-6.46 6.5-6.4-4.58-.03-6.48 6.42z"/><path d="M613 506.9l4.57.03-6.4-6.46 6.48-6.42-4.57-.02-6.5 6.42 6.4 6.45z" opacity=".7"/><path d="M620.2 506.93l4.57.03-6.4-6.46 6.5-6.42-4.58-.03-6.48 6.43 6.4 6.45z" opacity=".6"/></g><path d="M642.35 484.38v4.55h-4.55v-4.56z" fill="#010101"/><path d="M637.8 484.34v4.56h-4.55v-4.56z" fill="#fff"/><path d="M633.24 484.3v4.56h-4.56v-4.56z" fill="#010101"/><path d="M642.32 488.9v4.56h-4.55v-4.56zm-9.12-.07v4.55h-4.55v-4.55z" fill="#fff"/><path d="M637.76 488.82v4.56h-4.56v-4.56zm4.52 4.58v4.55h-4.55v-4.55z" fill="#010101"/><path d="M637.73 493.38v4.55h-4.56v-4.55z" fill="#fff"/><path d="M633.17 493.35v4.55h-4.55v-4.56z" fill="#010101"/><path d="M642.25 497.92v4.56h-4.56v-4.56zm-9.1-.06v4.56h-4.56v-4.55z" fill="#fff"/><path d="M637.7 497.85v4.56h-4.56v-4.55zm4.68 4.5v4.55h-4.55v-4.56z" fill="#010101"/><path d="M637.83 502.33v4.56h-4.56v-4.56z" fill="#fff"/><path d="M633.27 502.3v4.56h-4.55v-4.56z" fill="#010101"/></svg>