<svg xmlns="http://www.w3.org/2000/svg" xmlns:xlink="http://www.w3.org/1999/xlink" viewBox="0 0 1062.7 537.9" xmlns:v="https://vecta.io/nano"><g opacity=".5" fill="#fff"><path d="M498.7 234.1h1.4c.1 1.5 1.2 2.5 2.7 2.5 1.6 0 2.6-.8 2.6-2.1 0-1-.5-1.5-1.8-2l-1.7-.7c-1.9-.7-2.6-1.7-2.6-3.3 0-1.8 1.5-3.1 3.7-3.1s3.6 1.3 3.8 3.3h-1.4c-.1-1.3-.9-2.1-2.3-2.1s-2.3.7-2.3 1.8c0 1 .5 1.7 1.8 2.2l1.8.7c1.8.7 2.6 1.6 2.6 3.2 0 2.1-1.6 3.4-4 3.4s-4.2-1.5-4.3-3.8zm10.6-8.5h6.9v1.3h-5.5v3.8h5.4v1.3h-5.4v4.4h5.7v1.3h-7.1v-12.1zm8.9 6c0-3.5 2.7-6.2 6.2-6.2 3 0 5.3 1.8 5.8 4.5h-1.5c-.5-1.9-2.2-3.2-4.3-3.2-2.7 0-4.8 2.1-4.8 4.9s2.1 4.9 4.8 4.9c2.1 0 3.8-1.3 4.3-3.2h1.5c-.5 2.7-2.8 4.5-5.8 4.5-3.6 0-6.2-2.6-6.2-6.2zm16.8-4.7h-3.6v-1.3h8.6v1.3h-3.7v10.8H535v-10.8z"/><use xlink:href="#B"/><path d="M556.1 225.6h3.7c2.3 0 3.8 1.4 3.8 3.5 0 1.8-1 3.1-2.7 3.5l3.4 5.1h-1.7l-3.3-4.9h-1.9v4.9H556v-12.1zm3.6 5.8c1.5 0 2.4-.8 2.4-2.3 0-1.4-.9-2.3-2.4-2.3h-2.3v4.5h2.3zm14.7-5.8v12H573V227l-2.3.7-.3-1.2 2.8-.9h1.2z"/></g><g opacity=".5" fill="#fff"><path d="M278 517.7h1.4c.1 1.5 1.2 2.5 2.7 2.5 1.6 0 2.6-.8 2.6-2.1 0-1-.5-1.5-1.8-2l-1.7-.7c-1.9-.7-2.6-1.7-2.6-3.3 0-1.8 1.5-3.1 3.7-3.1s3.6 1.3 3.8 3.3h-1.4c-.1-1.3-.9-2.1-2.3-2.1s-2.3.7-2.3 1.8c0 1 .5 1.7 1.8 2.2l1.8.7c1.8.7 2.6 1.6 2.6 3.2 0 2.1-1.6 3.4-4 3.4-2.6 0-4.2-1.5-4.3-3.8zm10.7-8.4h6.9v1.3h-5.5v3.8h5.4v1.3h-5.4v4.4h5.7v1.3h-7.1v-12.1zm8.8 6c0-3.5 2.7-6.2 6.2-6.2 3 0 5.3 1.8 5.8 4.5H308c-.5-1.9-2.2-3.2-4.3-3.2-2.7 0-4.8 2.1-4.8 4.9s2.1 4.9 4.8 4.9c2.1 0 3.8-1.3 4.3-3.2h1.5c-.5 2.7-2.8 4.5-5.8 4.5-3.5 0-6.2-2.7-6.2-6.2zm16.9-4.8h-3.6v-1.3h8.6v1.3h-3.7v10.8h-1.4v-10.8z"/><use xlink:href="#B" x="-220.6" y="283.7"/><path d="M335.5 509.3h3.7c2.3 0 3.8 1.4 3.8 3.5 0 1.8-1 3.1-2.7 3.5l3.4 5.1H342l-3.3-4.9h-1.9v4.9h-1.4v-12.1zm3.6 5.8c1.5 0 2.4-.8 2.4-2.3 0-1.4-.9-2.3-2.4-2.3h-2.3v4.5h2.3zm19 4.9v1.3h-7.8v-.7c0-2.5 1.9-3.8 3.3-4.7 2.1-1.3 2.9-1.8 2.9-3.2 0-1.6-1-2.3-2.2-2.3-1.4 0-2.4 1-2.4 2.5h-1.4c0-2.3 1.5-3.8 3.8-3.8 2.2 0 3.7 1.3 3.7 3.6 0 2.1-1.4 3-3.3 4.2-1.7 1-2.6 1.8-2.9 3.2h6.3z"/></g><path d="M828.3 297.9h1.4c.1 1.5 1.2 2.5 2.7 2.5 1.6 0 2.6-.8 2.6-2.1 0-1-.5-1.5-1.8-2l-1.7-.7c-1.9-.7-2.6-1.7-2.6-3.3 0-1.8 1.5-3.1 3.7-3.1s3.6 1.3 3.8 3.3H835c-.1-1.3-.9-2.1-2.3-2.1s-2.3.7-2.3 1.8c0 1 .5 1.7 1.8 2.2l1.8.7c1.8.7 2.6 1.6 2.6 3.2 0 2.1-1.6 3.4-4 3.4-2.6 0-4.2-1.5-4.3-3.8zm10.6-8.5h6.9v1.3h-5.5v3.8h5.4v1.3h-5.4v4.4h5.7v1.3h-7.1v-12.1zm8.9 6c0-3.5 2.7-6.2 6.2-6.2 3 0 5.3 1.8 5.8 4.5h-1.5c-.5-1.9-2.2-3.2-4.3-3.2-2.7 0-4.8 2.1-4.8 4.9s2.1 4.9 4.8 4.9c2.1 0 3.8-1.3 4.3-3.2h1.5c-.5 2.7-2.8 4.5-5.8 4.5-3.6.1-6.2-2.6-6.2-6.2zm16.8-4.7H861v-1.3h8.6v1.3H866v10.8h-1.4v-10.8zm6 4.7c0-3.5 2.7-6.2 6.2-6.2s6.2 2.7 6.2 6.2-2.7 6.2-6.2 6.2c-3.5.1-6.2-2.6-6.2-6.2zm11 0c0-2.8-2.1-4.9-4.8-4.9s-4.8 2.1-4.8 4.9 2 4.9 4.8 4.9c2.8.1 4.8-2 4.8-4.9zm4.1-6h3.7c2.3 0 3.8 1.4 3.8 3.5 0 1.8-1 3.1-2.7 3.5l3.4 5.1h-1.7l-3.3-4.9H887v4.9h-1.4v-12.1zm3.6 5.8c1.5 0 2.4-.8 2.4-2.3 0-1.4-.9-2.3-2.4-2.3H887v4.5h2.3zm19 2.8c0 2.1-1.7 3.6-4 3.6s-3.8-1.4-3.9-3.8h1.4c.1 1.5 1 2.5 2.5 2.5 1.6 0 2.6-.9 2.6-2.3s-1-2.2-2.6-2.2H903v-1.3h1.2c1.4 0 2.2-.7 2.2-2 0-1.2-.8-2-2.2-2-1.3 0-2.3.8-2.3 2h-1.4c.1-1.9 1.7-3.3 3.8-3.3s3.6 1.3 3.6 3.2c0 1.2-.5 2.1-1.5 2.7 1.2.5 1.9 1.5 1.9 2.9z" opacity=".5" fill="#fff"/><g fill="#fff"><path d="M930.5 27.1c-6-4-12.6-3.5-19.5 1.5l-2.1 1.5-6.5 4.6-23.8 15.4-35.8 23.3-13.6 8.8c-13.1 8.3-26.6 17-39 26.8-.1.1-.3.1-.4.2-.1 0-.2.1-.2.1L777 119.4l-.8.7c-.5.4-1 .9-1.5 1.3l-31.3 26.1-90.9 75.8-.8.7c-2.8 2.3-5.7 4.7-8.2 7.3-4.8 4.9-4.8 10.4.2 15.4l1.1 1.1 1.8 1.8c.9 1 1.3 2 1.2 3s-.8 1.9-1.9 2.6c-1.2.8-2.2 1.2-3.1 1.3-6.2.8-12.5 1.5-18.7 2-1.6.2-3.3.2-4.9.3-2.7.1-5.5.2-8.2.7-9.1 1.8-17.2 6.3-24.1 10.4-5.3 3.1-10.6 6.4-15.7 9.5-16.3 9.9-33.1 20.2-50.7 28.3-.4.2-.8.5-1.2.7-.1.1-.3.2-.4.3-3.2 2-4.7 4.8-4.6 8.7v1.4c.1 4.1.2 8.3-.8 12.2-2.4 9.7-9.1 16.6-20.6 20.9-6 2.3-12.4 2.1-20.9-.6-10.9-3.5-21.2-1.8-31.4 5.3-.9.6-1.8 1.3-2.7 1.9-1.1.8-2.2 1.6-3.3 2.3-8.9 5.9-13.9 13.8-14.9 23.6-.7 6.8-4.2 11.1-11 13.5-3.1 1.1-6.3 2.4-9.4 3.6-4.5 1.8-9.2 3.6-13.9 5.1-8.5 2.7-16.2.6-21.6-5.9l-.4-.5c-1.8-2.2-3.7-4.4-5.7-6.4-7.2-7-15.1-9.2-23.7-6.6-10.4 3.2-21.3 4.7-33.1 4.5-6.3-.1-12.9 0-19.2 1.7-9.5 2.5-21.9 6-33.6 10.9L172 437.2l-20 8.8c-10.2 4.5-15.6 13.5-14.9 24.7.6 9 9.3 19.1 17.7 20.4 2.2.3 4.3.5 6.4.5 5.6 0 11.1-1.2 16.5-3.4 9.9-4.2 16.4-11.9 21.5-18.8l1.3-1.7c3.2-4.4 6.6-9 10.5-12.9 18.1-18.2 40.5-25.8 66.4-22.4 9.4 1.2 19.4 2 29.2 0 4-.9 8-2.2 11.9-3.5 1.3-.4 2.6-.9 4-1.3 4.8-1.5 8.8-.3 12.1 3.8l1.8 2.4 2 2.6c5.7 6.9 12.1 10.6 19.7 11.3 6.6.6 13.1-.1 19.4-2 21.5-6.5 37.2-15.6 49.4-28.5 2.6-2.8 5.4-5.6 8.1-8.2 2.3-2.2 4.6-4.5 6.8-6.9 13.5-14 29-23.4 47.3-28.7 24.7-7.1 44.6-21.9 59.3-44 5.8-8.8 12-15.8 18.9-21.4 22.2-18.2 48.6-28.8 78.2-31.3 10.6-.9 17.4-5.1 21.5-13.2 1.5-3 2.4-6.3 2.9-8.5 2.1-8.9 6.5-15.3 13.5-19.5 3-1.8 5.9-3.8 8.7-5.7l6.4-4.3c5.8-3.7 11.5-5.1 17.5-4.4l10.9 1.3 34.4 3.9c9.1.8 16.4.9 23.2.2 15-1.6 29.2-6.6 42.2-14.9 9.1-5.9 18.7-12.5 31-21.7 27.4-20.3 47.9-46.4 61-77.5 7.5-17.8 12.2-36.7 16.7-55l2.9-11.6c2.1-7.2-.7-14-7.8-18.7zM521.9 319c-.1-2.6 1-3.7 3.1-4.7l4.9-2.5 19-10 25.3-15 16.2-9.7c7.2-4.2 14.3-8.2 22.2-9.8 2.5-.5 5.1-.6 7.7-.7 1.6-.1 3.2-.1 4.8-.3 1.4-.1 2.8-.3 4.2-.4 5.1-.5 10.4-.9 15.6-1.8 5-.9 8.6-4 10.2-8.7 1.2-3.6.7-6.8-1.6-9.5-1.2-1.5-2.6-2.9-3.6-3.9-1.6-1.6-2.1-2.5-2.1-3.2s.7-1.6 2.3-3.1c3.1-2.8 6.5-5.7 10.3-8.9l119.8-99.9 1.5-1.2c.3-.2.6-.5 1-.7l11.6-10c2.5-1.7 4.9-3.4 7.3-5.2l15.5-10.7 55.2-35.9 33.6-21.8c2.8-1.8 5.5-3.8 8.1-5.7l1.8-1.3c3.9-2.8 7.3-3.1 10.4-1 4 2.8 5.7 6.8 4.6 10.9l-3.9 15.1c-4.6 18.3-9.4 37.2-17.4 54.8-12.9 28.3-32.4 52.1-58 70.8-2 1.4-4 2.9-5.9 4.4-9.4 7-19.2 14.2-29.9 19.6-17 8.6-34.8 11.9-52.7 9.8l-16.4-1.9-27.6-3.3c-9.2-1.1-17.5.8-24.7 5.5-1.7 1.1-3.3 2.2-4.9 3.3-3.2 2.2-6.6 4.5-9.9 6.5-9 5.5-14.7 13.7-16.9 24.5-.9 4-2.5 7.4-5 10.5-2.3 2.8-5.3 4.3-9 4.6-24.5 1.9-47.2 8.8-67.6 20.6-16.2 9.3-29.7 22.1-40.3 38-10.4 15.7-25.3 27.7-44.1 35.7-4.5 1.9-9.2 3.4-13.8 4.9l-7.4 2.4c-11.7 4-22.5 11-33.1 21.2l-13.9 13.6-9.7 9.5c-13.7 13.4-30.7 21.7-52 25.5-9.3 1.7-17.1-1.5-22.7-9-1.4-1.9-3-4-4.9-6-5.1-5.3-11.2-7-18.1-4.9l-5.6 1.8c-2.6.9-5.4 1.9-8.1 2.5-10 2.4-20.2 1.6-27.9.5-28.7-3.9-53.6 4.3-73.8 24.5-3.8 3.8-7 8.2-10.2 12.4l-1.5 2.1c-3.7 4.9-7.8 10.5-13.7 14.4-6.8 4.5-14.4 6.3-23.3 5.4-5.3-.5-11.3-7.3-12-13.7-.7-6.5 3.2-13.6 8.9-16.1l18-7.9 80-34.7c10.7-4.5 22.2-7.8 32-10.4 4.6-1.2 9.5-1.5 14.3-1.5h3.2c12.8.2 24-1.3 34.3-4.6 6.6-2.1 12.5-.3 17.9 5.6 1 1.1 1.9 2.2 2.9 3.3a33.29 33.29 0 0 0 2.5 2.8c7.6 8.4 17.4 10.9 28.9 7.4 5.7-1.7 11.4-4 16.9-6.2l7.9-3.1c9.1-3.4 14-9.7 14.9-19 .7-7.7 4.6-13.9 11.5-18.4 1.4-.9 2.7-1.9 4-2.8.5-.4 1-.7 1.5-1.1 8.3-6 16.7-7.5 25.7-4.6 9.9 3.2 18.4 3.3 26.1.2 13.4-5.4 21.7-14.1 24.7-26 1.2-4.1 1.1-9.2.9-13.8z"/><path d="M729.6 143l9.6.9 3.7-3.1-9.6-.9.9-9.5-3.7 3z" opacity=".8"/><path d="M723.5 148.2l9.5.9 3.7-3.1-9.5-.9.9-9.5-3.7 3.1z" opacity=".9"/><path d="M717.2 153.4l9.5.9 3.7-3.1-9.5-.9.9-9.5-3.7 3.1z"/><path d="M745 139l3.7-3-9.5-.9.9-9.6-3.7 3.1-.9 9.6z" opacity=".7"/><path d="M750.8 134.2l3.7-3.1-9.5-.9.9-9.5-3.7 3.1-.9 9.5z" opacity=".6"/></g><path d="M756.4 134.5l1.4 1.7-1.7 1.5-1.5-1.7 1.8-1.5z" fill="#12110e"/><use xlink:href="#C" fill="#fff"/><use xlink:href="#D" fill="#12110e"/><g fill="#fff"><use xlink:href="#E"/><use xlink:href="#E" x="-3.3" y="2.9"/></g><g fill="#12110e"><use xlink:href="#C" x="1.4" y="1.6"/><use xlink:href="#C" x="4.5" y="1.8"/></g><use xlink:href="#D" x="4.6" y="1.9" fill="#fff"/><use xlink:href="#E" x="-1.9" y="4.5" fill="#12110e"/><g fill="#fff"><use xlink:href="#D" x="7.7" y="2.1"/><use xlink:href="#E" x="-0.5" y="6.1"/></g><g fill="#12110e"><use xlink:href="#E" x="1.2" y="4.7"/><path d="M762.2 141l1.4 1.7-1.7 1.5-1.5-1.7 1.8-1.5z"/></g><path d="M760.6 142.5l1.5 1.7-1.7 1.4-1.5-1.7 1.7-1.4z" fill="#fff"/><path d="M758.9 143.9l1.5 1.7-1.7 1.4-1.5-1.7 1.7-1.4z" fill="#12110e"/><g fill="#fff"><path d="M621 223.9h-3v-2.1h8.4v2.1h-3.1v9H621v-9zm11-2.1v11.1h-2.3V224l-1.9.6-.5-2 2.9-.9h1.8z"/><use xlink:href="#F"/><use xlink:href="#G"/><use xlink:href="#F" x="-24.7"/><path d="M617.2 251.8c0 2-1.7 3.3-4 3.3-2.4 0-3.9-1.4-3.9-3.8h2.3c0 1 .7 1.7 1.6 1.7 1 0 1.7-.6 1.7-1.5s-.6-1.4-1.7-1.4H612v-1.8h1.1c1 0 1.5-.5 1.5-1.3s-.5-1.3-1.5-1.3c-.9 0-1.5.6-1.6 1.4h-2.2c.1-2.1 1.7-3.5 3.9-3.5s3.6 1.2 3.6 3.1c0 1.1-.5 2-1.4 2.4 1.2.5 1.8 1.5 1.8 2.7zM498 303.6h-3v-2.1h8.4v2.1h-3.1v9H498v-9zm14.2 7.1h-1.4v1.9h-2.3v-1.9h-5.1v-1.8l4.8-7.4h2.6v7.3h1.4v1.9zm-6.5-1.9h3v-4.7l-3 4.7z"/><use xlink:href="#F" x="-144.6" y="93"/><path d="M497.9 344.3c0 2.3-1.6 3.8-4.1 3.8-2.3 0-3.8-1.4-3.9-3.6h2.3c.1.9.8 1.5 1.7 1.5 1 0 1.8-.8 1.8-1.9 0-1-.7-1.8-1.7-1.8-.6 0-1.2.3-1.6.8h-2.1v-6.4h7.1v2h-4.9v2.2c.6-.3 1.2-.5 2-.5 1.9.2 3.4 1.8 3.4 3.9z"/><use xlink:href="#F" x="-178.4" y="93"/><use xlink:href="#H"/><use xlink:href="#F" x="-220" y="123.1"/><path d="M421.4 366.9v2l-4.3 9.2h-2.5l4.4-9h-5.1V367h7.5z"/><use xlink:href="#F" x="-229.4" y="141.6"/><path d="M412.7 393.4c0 2-1.6 3.3-4 3.3s-4-1.3-4-3.3c0-1.3.6-2.2 1.7-2.8-.9-.5-1.4-1.4-1.4-2.4 0-1.8 1.5-3.1 3.8-3.1s3.8 1.3 3.8 3.1c0 1.1-.5 1.9-1.4 2.4.9.5 1.5 1.5 1.5 2.8zm-2.3-.1c0-1-.7-1.6-1.7-1.6s-1.7.7-1.7 1.7c0 .9.7 1.5 1.7 1.5 1-.1 1.7-.7 1.7-1.6zm-3.2-5c0 .9.6 1.5 1.5 1.5s1.5-.6 1.5-1.5c0-.8-.6-1.4-1.5-1.4s-1.5.6-1.5 1.4z"/><use xlink:href="#F" x="-255.4" y="146.3"/><path d="M382.4 397.6c-2.1 0-3.7-1.7-3.7-3.8 0-2.2 1.8-3.9 4.1-3.9s4 1.7 4 4c0 1-.3 1.8-1.3 3.3l-2.7 4H380l2.4-3.6h0zm-1.5-3.8c0 1.1.8 1.8 1.8 1.8a1.79 1.79 0 0 0 1.8-1.8c0-1.1-.8-1.8-1.8-1.8a1.79 1.79 0 0 0-1.8 1.8zm-32.2-19h-3v-2.1h8.4v2.1H351v9h-2.3v-9zm11-2.1v11.1h-2.3V375l-1.9.6-.5-2 2.9-.9h1.8zm2 5.5c0-3.3 2.4-5.8 5.8-5.8s5.8 2.4 5.8 5.8c0 3.3-2.5 5.8-5.8 5.8s-5.8-2.5-5.8-5.8zm9.2 0c0-2.1-1.5-3.6-3.4-3.6-2 0-3.4 1.5-3.4 3.6s1.5 3.6 3.4 3.6c2 0 3.4-1.5 3.4-3.6z"/><use xlink:href="#F" x="-317.4" y="132.4"/><use xlink:href="#I"/><path d="M327.4 376.2v11.1H325v-8.8l-1.9.6-.5-2 2.9-.9h1.9zm-47.2 4.9h-3V379h8.4v2.1h-3.1v9h-2.3v-9z"/><use xlink:href="#I" x="-29.9" y="2.8"/><use xlink:href="#G" x="-340.8" y="135.2"/><path d="M117 483.1h-3V481h8.4v2.1h-3.1v9H117v-9zm11-2.2V492h-2.3v-8.8l-2 .6-.5-2 2.9-.9h1.9zm9.9 8c0 2-1.7 3.3-4 3.3-2.4 0-3.8-1.4-3.9-3.8h2.3c0 1 .7 1.7 1.6 1.7 1 0 1.7-.6 1.7-1.5s-.6-1.4-1.7-1.4h-1.1v-1.8h1.1c1 0 1.5-.5 1.5-1.3s-.5-1.3-1.5-1.3c-.9 0-1.5.6-1.6 1.4h-2.2c.1-2.1 1.7-3.5 3.9-3.5s3.6 1.2 3.6 3.1c0 1.1-.5 2-1.4 2.4 1.2.6 1.7 1.5 1.7 2.7zm96.1-43.4h-3v-2.1h8.4v2.1h-3.1v9H234v-9z"/><use xlink:href="#I" x="-76.1" y="67.2"/><path d="M255.6 452.7h-1.4v1.9h-2.3v-1.9h-5.1v-1.8l4.8-7.4h2.6v7.3h1.4v1.9zm-6.5-2h3V446l-3 4.7z"/><use xlink:href="#F" x="-344.2" y="192.9"/><path d="M294.3 436.6v11.1H292v-8.8l-1.9.6-.5-2 2.9-.9h1.8zm10.5 7.5c0 2.3-1.6 3.8-4.1 3.8-2.3 0-3.8-1.4-3.9-3.6h2.3c.1.9.8 1.5 1.7 1.5 1 0 1.8-.8 1.8-1.9 0-1-.7-1.8-1.7-1.8-.6 0-1.2.3-1.6.8H297v-6.4h7.1v2h-4.9v2.2c.6-.3 1.2-.5 2-.5 2 .2 3.6 1.8 3.6 3.9zm8.6-7.9h-3V434h8.4v2.1h-3.1v9h-2.3v-8.9zm11-2.2v11.1h-2.3v-8.8l-1.9.6-.5-2 2.9-.9h1.8z"/><use xlink:href="#H" x="-128.5" y="97.2"/><path d="M340.7 457h-3v-2.1h8.4v2.1H343v9h-2.3v-9zm11-2.2V466h-2.3v-8.8l-2 .6-.5-2 2.9-.9h1.9zm9.5 0v2l-4.3 9.2h-2.5l4.4-9h-5.1v-2.1h7.5z"/><use xlink:href="#F" x="-242.9" y="204"/><use xlink:href="#I" x="74.5" y="71.6"/><path d="M405.7 455.8c0 2-1.6 3.3-4 3.3s-4-1.3-4-3.3c0-1.3.6-2.2 1.7-2.8-.9-.5-1.4-1.4-1.4-2.4 0-1.8 1.5-3.1 3.8-3.1s3.8 1.3 3.8 3.1c0 1.1-.5 1.9-1.4 2.4 1 .6 1.5 1.5 1.5 2.8zm-2.3-.1c0-1-.7-1.6-1.7-1.6s-1.7.7-1.7 1.7c0 .9.7 1.5 1.7 1.5s1.7-.7 1.7-1.6zm-3.2-4.9c0 .9.6 1.5 1.5 1.5s1.5-.6 1.5-1.5c0-.8-.6-1.4-1.5-1.4s-1.5.6-1.5 1.4zm36.8-35h-3v-2.1h8.4v2.1h-3.1v9H437v-9zm11-2.1v11.1h-2.3V416l-2 .6-.5-2 2.9-.9h1.9zm5.7 7.5c-2.1 0-3.7-1.7-3.7-3.8 0-2.2 1.8-3.9 4.1-3.9s4 1.7 4 4c0 1-.3 1.8-1.3 3.3l-2.7 4h-2.7l2.3-3.6h0zm-1.5-3.8c0 1.1.8 1.8 1.8 1.8a1.79 1.79 0 0 0 1.8-1.8c0-1.1-.8-1.8-1.8-1.8s-1.8.7-1.8 1.8z"/><use xlink:href="#F" x="-122.1" y="130.4"/><path d="M519.8 383.3v2H512v-.9c0-2 1.4-3.3 3-4.3 1.8-1.1 2.3-1.5 2.3-2.4 0-1-.6-1.5-1.4-1.5-.9 0-1.5.6-1.5 1.7h-2.3c0-2.4 1.5-3.9 3.9-3.9 2.2 0 3.7 1.3 3.7 3.5 0 1.9-1.1 2.7-3 3.9-1.2.7-1.9 1.3-2.3 2h5.4zm1.3-3.5c0-3.3 2.4-5.8 5.8-5.8s5.8 2.4 5.8 5.8c0 3.3-2.5 5.8-5.8 5.8-3.3-.1-5.8-2.5-5.8-5.8zm9.2-.1c0-2.1-1.5-3.6-3.4-3.6-2 0-3.4 1.5-3.4 3.6s1.5 3.6 3.4 3.6c2 .1 3.4-1.4 3.4-3.6zM582 307h-3v-2.1h8.4v2.1h-3.1v9H582v-9z"/><use xlink:href="#G" x="-45.4" y="61.1"/><path d="M602.1 304.9V316h-2.3v-8.8l-1.9.6-.5-2 2.9-.9h1.8zm67.9-31.3h-3v-2.1h8.4v2.1h-3.1v9H670v-9z"/><use xlink:href="#G" x="42.6" y="27.7"/><use xlink:href="#G" x="51.7" y="27.7"/><path d="M682.2 247.1h-3V245h8.4v2.1h-3.1v9h-2.3v-9z"/><use xlink:href="#G" x="54.7" y="1.2"/><path d="M705.8 253c0 2-1.7 3.3-4 3.3-2.4 0-3.9-1.4-3.9-3.8h2.3c0 1 .7 1.7 1.6 1.7 1 0 1.7-.6 1.7-1.5s-.6-1.4-1.7-1.4h-1.1v-1.8h1.1c1 0 1.5-.5 1.5-1.3s-.5-1.3-1.5-1.3c-.9 0-1.5.6-1.6 1.4H698c.1-2.1 1.7-3.5 3.9-3.5s3.6 1.2 3.6 3.1c0 1.1-.5 2-1.4 2.4 1.1.5 1.7 1.4 1.7 2.7z"/><use xlink:href="#F" x="78.7" y="-16.1"/><path d="M720.7 236.8v2h-7.8v-.9c0-2 1.4-3.3 3-4.3 1.8-1.1 2.3-1.5 2.3-2.4 0-1-.6-1.5-1.4-1.5-.9 0-1.5.6-1.5 1.7H713c0-2.4 1.5-3.9 3.9-3.9 2.2 0 3.7 1.3 3.7 3.5 0 1.9-1.1 2.7-3 3.9-1.2.7-1.9 1.3-2.3 2h5.4zm9.8.2h-1.4v1.9h-2.3V237h-5.1v-1.8l4.8-7.4h2.6v7.3h1.4v1.9zm-6.5-2h3v-4.7l-3 4.7z"/><use xlink:href="#F" x="156.1" y="-44.9"/><use xlink:href="#G" x="156.1" y="-44.9"/><path d="M807.7 206.4c0 2.3-1.6 3.8-4.1 3.8-2.3 0-3.8-1.4-3.9-3.6h2.3c.1.9.8 1.5 1.7 1.5 1 0 1.8-.8 1.8-1.9 0-1-.7-1.8-1.7-1.8-.6 0-1.2.3-1.6.8h-2.1v-6.4h7.1v2h-4.9v2.2c.6-.3 1.2-.5 2-.5 1.9.1 3.4 1.7 3.4 3.9z"/><use xlink:href="#F" x="306.4" y="-230.5"/><use xlink:href="#G" x="306.5" y="-230.5"/><path d="M957,13.3v2l-4.3,9.2h-2.5l4.4-9h-5.1v-2.1H957z"/><use xlink:href="#F" x="303.9" y="-149.5"/><path d="M945.8 103.3v2H938v-.9c0-2 1.4-3.3 3-4.3 1.8-1.1 2.3-1.5 2.3-2.4 0-1-.6-1.5-1.4-1.5-.9 0-1.5.6-1.5 1.7h-2.3c0-2.4 1.5-3.9 3.9-3.9 2.2 0 3.7 1.3 3.7 3.5 0 1.9-1.1 2.7-3 3.9-1.2.7-1.9 1.3-2.3 2h5.4zm5.6-5.5c2.1 0 3.7 1.7 3.7 3.8 0 2.2-1.8 3.9-4.1 3.9s-4-1.7-4-4c0-1 .3-1.8 1.3-3.3l2.7-4h2.7l-2.3 3.6h0zm1.5 3.8c0-1.1-.8-1.8-1.8-1.8a1.79 1.79 0 0 0-1.8 1.8c0 1.1.8 1.8 1.8 1.8 1 .1 1.8-.7 1.8-1.8z"/></g><defs ><path id="B" d="M541 231.6c0-3.5 2.7-6.2 6.2-6.2s6.2 2.7 6.2 6.2-2.7 6.2-6.2 6.2-6.2-2.7-6.2-6.2zm11 0c0-2.8-2.1-4.9-4.8-4.9s-4.8 2.1-4.8 4.9 2 4.9 4.8 4.9 4.8-2.1 4.8-4.9z"/><path id="C" d="M754.8 136l1.5 1.7-1.7 1.4-1.4-1.7 1.6-1.4z"/><path id="D" d="M753.1 137.4l1.4 1.7-1.7 1.5-1.4-1.7 1.7-1.5z"/><path id="E" d="M757.9 136.2l1.4 1.7-1.7 1.4-1.4-1.7 1.7-1.4z"/><path id="F" d="M627.5 245.9h-3v-2.1h8.4v2.1h-3.1v9h-2.3v-9z"/><path id="G" d="M641.9 252.9v2h-7.8v-.9c0-2 1.4-3.3 3-4.3 1.8-1.1 2.3-1.5 2.3-2.4 0-1-.6-1.5-1.4-1.5-.9 0-1.5.6-1.5 1.7h-2.3c0-2.4 1.5-3.9 3.9-3.9 2.2 0 3.7 1.3 3.7 3.5 0 1.9-1.1 2.7-3 3.9-1.2.7-1.9 1.3-2.3 2h5.4z"/><path id="H" d="M459.3 340.4c2.1 0 3.7 1.7 3.7 3.8 0 2.2-1.8 3.9-4.1 3.9s-4-1.7-4-4c0-1 .3-1.8 1.3-3.3l2.7-4h2.7l-2.3 3.6h0zm1.5 3.8c0-1.1-.8-1.8-1.8-1.8a1.79 1.79 0 0 0-1.8 1.8c0 1.1.8 1.8 1.8 1.8s1.8-.7 1.8-1.8z"/><path id="I" d="M321.1 376.2v11.1h-2.3v-8.8l-2 .6-.5-2 2.9-.9h1.9z"/></defs></svg>